<?xml version="1.0"?>
<svg xmlns="http://www.w3.org/2000/svg" xmlns:xlink="http://www.w3.org/1999/xlink" version="1.1" id="Capa_1" x="0px" y="0px" viewBox="0 0 493.242 493.242" style="enable-background:new 0 0 493.242 493.242;" xml:space="preserve" width="512px" height="512px" class=""><g><g>
	<path d="M369.086,274.039c-6.705,13.129-13.365,24.789-19.402,34.557c66.705,14.018,105.068,40.147,105.068,60.684   c0,29.52-79.18,70.688-208.131,70.688s-208.13-41.168-208.13-70.688c0-20.377,37.742-46.281,103.507-60.398   c-6.07-9.734-12.761-21.362-19.516-34.443C52.909,291.5,0,323.554,0,369.279c0,70.912,127.07,109.18,246.621,109.18   s246.621-38.268,246.621-109.18C493.242,323.205,439.473,291.005,369.086,274.039z" data-original="#000000" class="active-path" data-old_color="#8A0EBC" fill="#790AA7"/>
	<path d="M245.602,375.013c25.586,0,125.875-132.264,125.875-222.309c0-62.851-29.488-137.92-125.875-137.92   c-96.402,0-125.875,75.069-125.875,137.92C119.727,243.752,221.513,375.013,245.602,375.013z M187.229,138.843   c0-32.213,26.189-58.389,58.373-58.389c32.183,0,58.373,26.176,58.373,58.389c0,32.167-26.19,58.357-58.373,58.357   C213.418,197.201,187.229,171.01,187.229,138.843z" data-original="#000000" class="active-path" data-old_color="#8A0EBC" fill="#790AA7"/>
</g></g> </svg>
