<?xml version="1.0"?>
<svg xmlns="http://www.w3.org/2000/svg" xmlns:xlink="http://www.w3.org/1999/xlink" version="1.1" id="Capa_1" x="0px" y="0px" viewBox="0 0 525.153 525.153" style="enable-background:new 0 0 525.153 525.153;" xml:space="preserve" width="512px" height="512px"><g><g>
	<path d="M288.812,131.288h-52.471v105.052H131.288v52.471h105.052v105.052h52.471V288.812h105.052v-52.471H288.812   C288.812,236.341,288.812,131.288,288.812,131.288z M262.576,0C117.897,0,0,117.897,0,262.576   c0,144.658,117.897,262.576,262.576,262.576h210.061c28.883,0,52.515-23.632,52.515-52.515V262.576   C525.153,117.897,407.234,0,262.576,0z M262.576,472.637c-115.818,0-210.061-94.243-210.061-210.061S146.758,52.515,262.576,52.515   s210.061,94.243,210.061,210.061S378.394,472.637,262.576,472.637z" data-original="#000000" class="active-path" data-old_color="#000000" fill="#FFCF0A"/>
</g></g> </svg>
