<?xml version="1.0"?>
<svg xmlns="http://www.w3.org/2000/svg" xmlns:xlink="http://www.w3.org/1999/xlink" version="1.1" id="Capa_1" x="0px" y="0px" viewBox="0 0 512 512" style="enable-background:new 0 0 512 512;" xml:space="preserve" width="512px" height="512px" class=""><g><g>
	<path style="fill:#506366;" d="M155.624,418.576H99.872c-2.599,0-4.707,2.108-4.707,4.707v56.124   c0,11.035,8.946,19.981,19.981,19.981h25.202c11.035,0,19.981-8.946,19.981-19.981v-56.124   C160.331,420.683,158.224,418.576,155.624,418.576z" data-original="#506366"/>
	<path style="fill:#506366;" d="M365.22,418.576h55.752c2.599,0,4.707,2.108,4.707,4.707v56.124   c0,11.035-8.946,19.981-19.981,19.981h-25.202c-11.035,0-19.981-8.946-19.981-19.981v-56.124   C360.513,420.683,362.621,418.576,365.22,418.576z" data-original="#506366"/>
	<path style="fill:#506366;" d="M486.777,188.18c6.784,0,12.284-5.499,12.284-12.284v-45.053c0-25.365-20.636-46.002-46.001-46.002   h-36.081c-6.784,0-12.284,5.5-12.284,12.284c0,6.785,5.5,12.284,12.284,12.284h36.081c11.818,0,21.433,9.615,21.433,21.433v45.053   C474.492,182.681,479.992,188.18,486.777,188.18z" data-original="#506366"/>
	<path style="fill:#506366;" d="M25.223,188.18c-6.784,0-12.284-5.499-12.284-12.284v-45.053c0-25.365,20.636-46.002,46.001-46.002   h36.081c6.784,0,12.284,5.5,12.284,12.284c0,6.785-5.5,12.284-12.284,12.284h-36.08c-11.818,0-21.433,9.615-21.433,21.433v45.053   C37.508,182.681,32.008,188.18,25.223,188.18z" data-original="#506366"/>
</g><path style="fill:#FF2800" d="M372.337,12.611H139.663c-35.43,0-64.152,28.722-64.152,64.152v290.611L256,401.771l180.49-34.396  V76.764C436.49,41.334,407.767,12.611,372.337,12.611z" data-original="#FADC60" class="" data-old_color="#FF5600"/><g>
	<path style="fill:#3A484A;" d="M420.973,418.576H365.22c-2.599,0-4.707,2.107-4.707,4.707v38.638h65.166v-38.638   C425.679,420.683,423.572,418.576,420.973,418.576z" data-original="#3A484A" class=""/>
	<path style="fill:#3A484A;" d="M155.624,418.576H99.871c-2.599,0-4.707,2.107-4.707,4.707v38.638h65.166v-38.638   C160.331,420.683,158.224,418.576,155.624,418.576z" data-original="#3A484A" class=""/>
</g><polygon style="fill:#FF4F00" points="75.511,346.772 75.51,346.772 75.51,367.376 256,401.771 436.49,367.376 436.49,346.772 " data-original="#E6CB59" class="active-path" data-old_color="#E6CB59"/><path style="fill:#B8B8B8;" d="M436.49,367.376H75.51c-9.682,0-17.53,7.848-17.53,17.53v33.731c0,9.682,7.848,17.53,17.53,17.53  h360.979c9.682,0,17.53-7.848,17.53-17.53v-33.731C454.019,375.224,446.17,367.376,436.49,367.376z" data-original="#B8B8B8" class=""/><polygon style="fill:#EFEDEE;" points="180.33,286.556 260.436,275.137 340.514,286.556 340.514,312.717 260.436,325.797   180.33,312.717 " data-original="#EFEDEE"/><g>
	<path style="fill:#B8B8B8;" d="M340.514,275.805v10.751H180.33v-10.751c0-8.51,6.899-15.409,15.409-15.409h129.366   C333.616,260.396,340.514,267.295,340.514,275.805z" data-original="#B8B8B8" class=""/>
	<path style="fill:#B8B8B8;" d="M340.514,312.717v10.751c0,8.51-6.899,15.409-15.409,15.409H195.74   c-8.51,0-15.409-6.899-15.409-15.409v-10.751H340.514z" data-original="#B8B8B8" class=""/>
</g><circle style="fill:#FA9F6A;" cx="127.021" cy="299.638" r="24.5" data-original="#FA9F6A" class=""/><path style="fill:#E0824A;" d="M137.319,313.834c-13.53,0-24.5-10.968-24.5-24.5c0-4.112,1.018-7.985,2.809-11.389  c-7.793,4.1-13.111,12.273-13.111,21.69c0,13.53,10.968,24.5,24.5,24.5c9.418,0,17.59-5.318,21.69-13.111  C145.305,312.816,141.431,313.834,137.319,313.834z" data-original="#E0824A"/><circle style="fill:#FA9F6A;" cx="393.828" cy="299.638" r="24.5" data-original="#FA9F6A" class=""/><path style="fill:#E0824A;" d="M404.129,313.834c-13.53,0-24.5-10.968-24.5-24.5c0-4.112,1.018-7.985,2.809-11.389  c-7.793,4.1-13.111,12.273-13.111,21.69c0,13.53,10.968,24.5,24.5,24.5c9.418,0,17.59-5.318,21.69-13.111  C412.115,312.816,408.241,313.834,404.129,313.834z" data-original="#E0824A"/><polygon style="fill:#506366;" points="256,166.572 109.908,186.554 109.908,220.949 402.092,220.949 402.092,186.554 " data-original="#506366"/><path style="fill:#6EE3FF;" d="M402.092,76.764v109.79H109.908V76.764c0-16.412,13.345-29.757,29.757-29.757h232.671  C388.747,47.007,402.092,60.352,402.092,76.764z" data-original="#6EE3FF"/><path style="fill:#42C3E2;" d="M372.335,47.007H139.665c-16.412,0-29.757,13.346-29.757,29.757v30.905  c0-16.412,13.345-29.757,29.757-29.757h232.671c16.412,0,29.757,13.346,29.757,29.757V76.764  C402.092,60.352,388.747,47.007,372.335,47.007z" data-original="#42C3E2"/><path style="fill:#EFEDEE;" d="M311.927,401.771H208.917c-7.466,0-13.518,6.052-13.518,13.518v32.91  c0,7.466,6.052,13.518,13.518,13.518h103.011c7.466,0,13.518-6.052,13.518-13.518v-32.91  C325.446,407.823,319.393,401.771,311.927,401.771z" data-original="#EFEDEE"/><g>
	<path style="fill:#3A484A;" d="M161.58,133.458c-4.267,0-7.726-3.459-7.726-7.726v-17.089c0-4.267,3.459-7.726,7.726-7.726   c4.267,0,7.726,3.459,7.726,7.726v17.089C169.306,129.999,165.847,133.458,161.58,133.458z" data-original="#3A484A" class=""/>
	<path style="fill:#3A484A;" d="M350.42,133.458c-4.267,0-7.726-3.459-7.726-7.726v-17.089c0-4.267,3.459-7.726,7.726-7.726   s7.726,3.459,7.726,7.726v17.089C358.147,129.999,354.687,133.458,350.42,133.458z" data-original="#3A484A" class=""/>
	<path style="fill:#3A484A;" d="M256,142.579c-11.312,0-21.927-4.721-29.122-12.952c-2.808-3.213-2.481-8.094,0.732-10.902   c3.212-2.807,8.093-2.481,10.902,0.732c4.26,4.874,10.634,7.669,17.487,7.669c6.854,0,13.226-2.795,17.486-7.669   c2.809-3.213,7.689-3.541,10.902-0.732c3.213,2.808,3.541,7.689,0.732,10.902C277.926,137.859,267.312,142.579,256,142.579z" data-original="#3A484A" class=""/>
</g><g>
	<path style="fill:#FF2800" d="M477.152,130.843h19.249c8.615,0,15.599,6.984,15.599,15.599v58.909   c0,8.615-6.984,15.599-15.599,15.599h-19.249c-8.615,0-15.599-6.984-15.599-15.599v-58.909   C461.553,137.827,468.538,130.843,477.152,130.843z" data-original="#FADC60" class="" data-old_color="#FF5600"/>
	<path style="fill:#FF2800" d="M34.848,130.843H15.599C6.984,130.843,0,137.827,0,146.442v58.909   c0,8.615,6.984,15.599,15.599,15.599h19.249c8.615,0,15.599-6.984,15.599-15.599v-58.909   C50.447,137.827,43.462,130.843,34.848,130.843z" data-original="#FADC60" class="" data-old_color="#FF5600"/>
</g></g> </svg>
